<?xml version="1.0" standalone="no"?>
<!DOCTYPE svg PUBLIC "-//W3C//DTD SVG 20010904//EN"
 "http://www.w3.org/TR/2001/REC-SVG-20010904/DTD/svg10.dtd">
<svg version="1.0" xmlns="http://www.w3.org/2000/svg"
 width="476.000000pt" height="476.000000pt" viewBox="0 0 476.000000 476.000000"
 preserveAspectRatio="xMidYMid meet">

<g transform="translate(0.000000,476.000000) scale(0.100000,-0.100000)"
fill="#ffffff" stroke="none">
<path d="M1546 3363 c-7 -60 -196 -1966 -196 -1981 0 -9 96 -12 365 -12 l365
0 4 23 c3 12 35 328 71 702 36 374 68 697 71 718 l6 37 184 0 c180 0 184 0
184 -21 0 -11 -32 -335 -70 -719 -38 -384 -70 -708 -70 -719 0 -21 2 -21 368
-21 l368 0 98 983 c54 540 100 999 103 1020 l6 37 -926 0 -925 0 -6 -47z"/>
</g>
</svg>
